<mxfile host="app.diagrams.net" modified="2023-09-22T10:27:02.462Z" agent="Mozilla/5.0 (Macintosh; Intel Mac OS X 10_15_7) AppleWebKit/537.36 (KHTML, like Gecko) Chrome/116.0.0.0 Safari/537.36" etag="Ao91Bert4-r83G4ZpiKy" version="21.7.5" type="device" pages="3">
  <diagram id="C5RBs43oDa-KdzZeNtuy" name="Page-1">
    <mxGraphModel dx="895" dy="2885" grid="1" gridSize="10" guides="1" tooltips="1" connect="1" arrows="1" fold="1" page="1" pageScale="1" pageWidth="827" pageHeight="1169" math="0" shadow="0">
      <root>
        <mxCell id="WIyWlLk6GJQsqaUBKTNV-0" />
        <mxCell id="WIyWlLk6GJQsqaUBKTNV-1" parent="WIyWlLk6GJQsqaUBKTNV-0" />
        <mxCell id="s32Tm8xTcJiPgJSjNKc--2" value="" style="edgeStyle=orthogonalEdgeStyle;rounded=0;orthogonalLoop=1;jettySize=auto;html=1;strokeWidth=2;" parent="WIyWlLk6GJQsqaUBKTNV-1" source="s32Tm8xTcJiPgJSjNKc--0" target="s32Tm8xTcJiPgJSjNKc--1" edge="1">
          <mxGeometry relative="1" as="geometry" />
        </mxCell>
        <mxCell id="s32Tm8xTcJiPgJSjNKc--0" value="MULAI" style="strokeWidth=2;html=1;shape=mxgraph.flowchart.terminator;whiteSpace=wrap;" parent="WIyWlLk6GJQsqaUBKTNV-1" vertex="1">
          <mxGeometry x="271.25" y="-2250" width="90" height="40" as="geometry" />
        </mxCell>
        <mxCell id="s32Tm8xTcJiPgJSjNKc--4" value="" style="edgeStyle=orthogonalEdgeStyle;rounded=0;orthogonalLoop=1;jettySize=auto;html=1;strokeWidth=2;" parent="WIyWlLk6GJQsqaUBKTNV-1" source="s32Tm8xTcJiPgJSjNKc--1" target="s32Tm8xTcJiPgJSjNKc--3" edge="1">
          <mxGeometry relative="1" as="geometry" />
        </mxCell>
        <mxCell id="s32Tm8xTcJiPgJSjNKc--1" value="&lt;span style=&quot;color: rgb(0, 0, 0); font-family: Helvetica; font-style: normal; font-variant-ligatures: normal; font-variant-caps: normal; font-weight: 400; letter-spacing: normal; orphans: 2; text-align: center; text-indent: 0px; text-transform: none; widows: 2; word-spacing: 0px; -webkit-text-stroke-width: 0px; background-color: rgb(251, 251, 251); text-decoration-thickness: initial; text-decoration-style: initial; text-decoration-color: initial; float: none; display: inline !important;&quot;&gt;&lt;font style=&quot;font-size: 13px;&quot;&gt;Permasalahan Aziz dalam mengambil mata kuliah&lt;/font&gt;&lt;/span&gt;" style="whiteSpace=wrap;html=1;strokeWidth=2;" parent="WIyWlLk6GJQsqaUBKTNV-1" vertex="1">
          <mxGeometry x="256.25" y="-2166" width="120" height="60" as="geometry" />
        </mxCell>
        <mxCell id="s32Tm8xTcJiPgJSjNKc--6" value="" style="edgeStyle=orthogonalEdgeStyle;rounded=0;orthogonalLoop=1;jettySize=auto;html=1;strokeWidth=2;" parent="WIyWlLk6GJQsqaUBKTNV-1" source="s32Tm8xTcJiPgJSjNKc--3" target="s32Tm8xTcJiPgJSjNKc--5" edge="1">
          <mxGeometry relative="1" as="geometry" />
        </mxCell>
        <mxCell id="s32Tm8xTcJiPgJSjNKc--3" value="&lt;font style=&quot;font-size: 13px;&quot;&gt;Aziz mempunyai&lt;br style=&quot;border-color: var(--border-color);&quot;&gt;nilai IPK 2.98&lt;/font&gt;" style="shape=parallelogram;perimeter=parallelogramPerimeter;whiteSpace=wrap;html=1;fixedSize=1;strokeWidth=2;" parent="WIyWlLk6GJQsqaUBKTNV-1" vertex="1">
          <mxGeometry x="256.25" y="-2046" width="120" height="60" as="geometry" />
        </mxCell>
        <mxCell id="s32Tm8xTcJiPgJSjNKc--8" value="" style="edgeStyle=orthogonalEdgeStyle;rounded=0;orthogonalLoop=1;jettySize=auto;html=1;strokeWidth=2;" parent="WIyWlLk6GJQsqaUBKTNV-1" source="s32Tm8xTcJiPgJSjNKc--5" target="s32Tm8xTcJiPgJSjNKc--7" edge="1">
          <mxGeometry relative="1" as="geometry" />
        </mxCell>
        <mxCell id="s32Tm8xTcJiPgJSjNKc--5" value="&lt;font style=&quot;font-size: 13px;&quot;&gt;&amp;nbsp;IPK aziz &amp;lt; 3.0&lt;/font&gt;" style="rhombus;whiteSpace=wrap;html=1;strokeWidth=2;" parent="WIyWlLk6GJQsqaUBKTNV-1" vertex="1">
          <mxGeometry x="256.25" y="-1926" width="120" height="100" as="geometry" />
        </mxCell>
        <mxCell id="s32Tm8xTcJiPgJSjNKc--10" value="" style="edgeStyle=orthogonalEdgeStyle;rounded=0;orthogonalLoop=1;jettySize=auto;html=1;strokeWidth=2;" parent="WIyWlLk6GJQsqaUBKTNV-1" source="s32Tm8xTcJiPgJSjNKc--7" edge="1">
          <mxGeometry relative="1" as="geometry">
            <mxPoint x="316.25" y="-1648" as="targetPoint" />
          </mxGeometry>
        </mxCell>
        <mxCell id="s32Tm8xTcJiPgJSjNKc--7" value="&lt;font style=&quot;font-size: 14px;&quot;&gt;Dapat Mengambil 20 Sks&lt;/font&gt;" style="whiteSpace=wrap;html=1;strokeWidth=2;" parent="WIyWlLk6GJQsqaUBKTNV-1" vertex="1">
          <mxGeometry x="256.25" y="-1776" width="120" height="60" as="geometry" />
        </mxCell>
        <mxCell id="s32Tm8xTcJiPgJSjNKc--12" value="" style="edgeStyle=orthogonalEdgeStyle;rounded=0;orthogonalLoop=1;jettySize=auto;html=1;strokeWidth=2;" parent="WIyWlLk6GJQsqaUBKTNV-1" target="s32Tm8xTcJiPgJSjNKc--11" edge="1">
          <mxGeometry relative="1" as="geometry">
            <mxPoint x="316.25" y="-1552" as="sourcePoint" />
          </mxGeometry>
        </mxCell>
        <mxCell id="s32Tm8xTcJiPgJSjNKc--9" value="&lt;font style=&quot;font-size: 14px;&quot;&gt;Apakah akan mengambil matkul yang di ulang?&lt;/font&gt;" style="rhombus;whiteSpace=wrap;html=1;strokeWidth=2;" parent="WIyWlLk6GJQsqaUBKTNV-1" vertex="1">
          <mxGeometry x="230" y="-1648" width="172.5" height="96" as="geometry" />
        </mxCell>
        <mxCell id="s32Tm8xTcJiPgJSjNKc--14" value="" style="edgeStyle=orthogonalEdgeStyle;rounded=0;orthogonalLoop=1;jettySize=auto;html=1;strokeWidth=2;" parent="WIyWlLk6GJQsqaUBKTNV-1" source="s32Tm8xTcJiPgJSjNKc--11" target="s32Tm8xTcJiPgJSjNKc--13" edge="1">
          <mxGeometry relative="1" as="geometry" />
        </mxCell>
        <mxCell id="s32Tm8xTcJiPgJSjNKc--11" value="&lt;font style=&quot;font-size: 14px;&quot;&gt;Aziz mengambil mata kuliah yg di ulang&lt;/font&gt;" style="whiteSpace=wrap;html=1;strokeWidth=2;" parent="WIyWlLk6GJQsqaUBKTNV-1" vertex="1">
          <mxGeometry x="256.25" y="-1486" width="120" height="60" as="geometry" />
        </mxCell>
        <mxCell id="s32Tm8xTcJiPgJSjNKc--17" value="" style="edgeStyle=orthogonalEdgeStyle;rounded=0;orthogonalLoop=1;jettySize=auto;html=1;strokeWidth=2;" parent="WIyWlLk6GJQsqaUBKTNV-1" source="s32Tm8xTcJiPgJSjNKc--13" edge="1">
          <mxGeometry relative="1" as="geometry">
            <mxPoint x="316.25" y="-1236" as="targetPoint" />
          </mxGeometry>
        </mxCell>
        <mxCell id="s32Tm8xTcJiPgJSjNKc--13" value="&lt;font style=&quot;font-size: 14px;&quot;&gt;Mengambil matkul wajib&lt;/font&gt;" style="whiteSpace=wrap;html=1;strokeWidth=2;" parent="WIyWlLk6GJQsqaUBKTNV-1" vertex="1">
          <mxGeometry x="256.25" y="-1356" width="120" height="60" as="geometry" />
        </mxCell>
        <mxCell id="s32Tm8xTcJiPgJSjNKc--15" value="&lt;font style=&quot;font-size: 13px;&quot;&gt;MULAI&lt;/font&gt;" style="strokeWidth=2;html=1;shape=mxgraph.flowchart.terminator;whiteSpace=wrap;" parent="WIyWlLk6GJQsqaUBKTNV-1" vertex="1">
          <mxGeometry x="271.25" y="-2250" width="90" height="40" as="geometry" />
        </mxCell>
        <mxCell id="s32Tm8xTcJiPgJSjNKc--16" value="&lt;font style=&quot;font-size: 14px;&quot;&gt;END&lt;/font&gt;" style="strokeWidth=2;html=1;shape=mxgraph.flowchart.terminator;whiteSpace=wrap;" parent="WIyWlLk6GJQsqaUBKTNV-1" vertex="1">
          <mxGeometry x="271.25" y="-1230" width="90" height="40" as="geometry" />
        </mxCell>
        <mxCell id="s32Tm8xTcJiPgJSjNKc--18" value="&lt;font style=&quot;font-size: 14px;&quot;&gt;Dapat Mengambil 24 Sks&lt;/font&gt;" style="whiteSpace=wrap;html=1;strokeWidth=2;" parent="WIyWlLk6GJQsqaUBKTNV-1" vertex="1">
          <mxGeometry x="580" y="-1776" width="120" height="60" as="geometry" />
        </mxCell>
        <mxCell id="s32Tm8xTcJiPgJSjNKc--42" value="" style="endArrow=none;html=1;rounded=0;strokeWidth=2;" parent="WIyWlLk6GJQsqaUBKTNV-1" edge="1">
          <mxGeometry width="50" height="50" relative="1" as="geometry">
            <mxPoint x="376.25" y="-1876" as="sourcePoint" />
            <mxPoint x="636.25" y="-1876" as="targetPoint" />
          </mxGeometry>
        </mxCell>
        <mxCell id="s32Tm8xTcJiPgJSjNKc--43" value="" style="endArrow=classic;html=1;rounded=0;strokeWidth=2;" parent="WIyWlLk6GJQsqaUBKTNV-1" edge="1">
          <mxGeometry width="50" height="50" relative="1" as="geometry">
            <mxPoint x="636.25" y="-1876" as="sourcePoint" />
            <mxPoint x="636.25" y="-1776" as="targetPoint" />
          </mxGeometry>
        </mxCell>
        <mxCell id="s32Tm8xTcJiPgJSjNKc--44" value="" style="endArrow=none;html=1;rounded=0;strokeWidth=2;" parent="WIyWlLk6GJQsqaUBKTNV-1" edge="1">
          <mxGeometry width="50" height="50" relative="1" as="geometry">
            <mxPoint x="402.5" y="-1600.19" as="sourcePoint" />
            <mxPoint x="636.25" y="-1600" as="targetPoint" />
          </mxGeometry>
        </mxCell>
        <mxCell id="s32Tm8xTcJiPgJSjNKc--45" value="" style="endArrow=none;html=1;rounded=0;entryX=0.5;entryY=1;entryDx=0;entryDy=0;strokeWidth=2;" parent="WIyWlLk6GJQsqaUBKTNV-1" edge="1">
          <mxGeometry width="50" height="50" relative="1" as="geometry">
            <mxPoint x="636.25" y="-1596" as="sourcePoint" />
            <mxPoint x="636.25" y="-1716" as="targetPoint" />
          </mxGeometry>
        </mxCell>
        <mxCell id="s32Tm8xTcJiPgJSjNKc--46" value="" style="endArrow=none;html=1;rounded=0;strokeWidth=2;" parent="WIyWlLk6GJQsqaUBKTNV-1" edge="1">
          <mxGeometry width="50" height="50" relative="1" as="geometry">
            <mxPoint x="636.25" y="-1270" as="sourcePoint" />
            <mxPoint x="636.25" y="-1596" as="targetPoint" />
          </mxGeometry>
        </mxCell>
        <mxCell id="s32Tm8xTcJiPgJSjNKc--47" value="" style="endArrow=classic;html=1;rounded=0;strokeWidth=2;" parent="WIyWlLk6GJQsqaUBKTNV-1" edge="1">
          <mxGeometry width="50" height="50" relative="1" as="geometry">
            <mxPoint x="636.25" y="-1270" as="sourcePoint" />
            <mxPoint x="316.25" y="-1270" as="targetPoint" />
          </mxGeometry>
        </mxCell>
        <mxCell id="s32Tm8xTcJiPgJSjNKc--48" value="&lt;font style=&quot;font-size: 15px;&quot;&gt;Yes&lt;/font&gt;" style="text;html=1;align=center;verticalAlign=middle;resizable=0;points=[];autosize=1;strokeColor=none;fillColor=none;strokeWidth=2;" parent="WIyWlLk6GJQsqaUBKTNV-1" vertex="1">
          <mxGeometry x="311.25" y="-1832" width="50" height="30" as="geometry" />
        </mxCell>
        <mxCell id="s32Tm8xTcJiPgJSjNKc--49" value="&lt;font style=&quot;font-size: 14px;&quot;&gt;No&lt;/font&gt;" style="text;html=1;align=center;verticalAlign=middle;resizable=0;points=[];autosize=1;strokeColor=none;fillColor=none;strokeWidth=2;" parent="WIyWlLk6GJQsqaUBKTNV-1" vertex="1">
          <mxGeometry x="376.25" y="-1902" width="40" height="30" as="geometry" />
        </mxCell>
        <mxCell id="s32Tm8xTcJiPgJSjNKc--50" value="&lt;font style=&quot;font-size: 14px;&quot;&gt;Yes&lt;/font&gt;" style="text;html=1;align=center;verticalAlign=middle;resizable=0;points=[];autosize=1;strokeColor=none;fillColor=none;strokeWidth=2;" parent="WIyWlLk6GJQsqaUBKTNV-1" vertex="1">
          <mxGeometry x="311.25" y="-1552" width="50" height="30" as="geometry" />
        </mxCell>
        <mxCell id="s32Tm8xTcJiPgJSjNKc--51" value="No" style="text;html=1;align=center;verticalAlign=middle;resizable=0;points=[];autosize=1;strokeColor=none;fillColor=none;strokeWidth=2;" parent="WIyWlLk6GJQsqaUBKTNV-1" vertex="1">
          <mxGeometry x="396.25" y="-1630" width="40" height="30" as="geometry" />
        </mxCell>
        <mxCell id="lluZ5RmbZSSxgCh2yDnl-0" value="&lt;h1 style=&quot;font-size: 17px;&quot;&gt;&lt;font style=&quot;font-size: 17px;&quot;&gt;Studi Kasus 1 : Flowchart Permasalahan Pada Mahasiswa&amp;nbsp; Mengambil Mata Kuliah dengan Nilai IPK tertentu&lt;/font&gt;&lt;/h1&gt;&lt;p style=&quot;font-size: 17px;&quot;&gt;&lt;br&gt;&lt;/p&gt;" style="text;html=1;strokeColor=none;fillColor=none;spacing=5;spacingTop=-20;whiteSpace=wrap;overflow=hidden;rounded=0;" parent="WIyWlLk6GJQsqaUBKTNV-1" vertex="1">
          <mxGeometry x="30" y="-2320" width="740" height="120" as="geometry" />
        </mxCell>
        <mxCell id="WiA2aia0PaYZAGRsGLNB-23" value="&lt;font style=&quot;font-size: 16px;&quot;&gt;Penyeselaian 1&lt;/font&gt;" style="text;html=1;strokeColor=none;fillColor=none;align=center;verticalAlign=middle;whiteSpace=wrap;rounded=0;" vertex="1" parent="WIyWlLk6GJQsqaUBKTNV-1">
          <mxGeometry x="406.25" y="-2250" width="140" height="30" as="geometry" />
        </mxCell>
      </root>
    </mxGraphModel>
  </diagram>
  <diagram id="KGJ_-5r1MATL6CxhHQ9A" name="Page-2">
    <mxGraphModel dx="1968" dy="3542" grid="1" gridSize="10" guides="1" tooltips="1" connect="1" arrows="1" fold="1" page="1" pageScale="1" pageWidth="827" pageHeight="1169" math="0" shadow="0">
      <root>
        <mxCell id="0" />
        <mxCell id="1" parent="0" />
        <mxCell id="veG0McLc98S-o1ilM4hX-1" value="&lt;h1 style=&quot;font-size: 17px;&quot;&gt;&lt;font style=&quot;font-size: 17px;&quot;&gt;Studi Kasus 1 : Flowchart Permasalahan Pada Mahasiswa&amp;nbsp; Mengambil Mata Kuliah dengan Nilai IPK tertentu&lt;/font&gt;&lt;/h1&gt;&lt;p style=&quot;font-size: 17px;&quot;&gt;&lt;br&gt;&lt;/p&gt;" style="text;html=1;strokeColor=none;fillColor=none;spacing=5;spacingTop=-20;whiteSpace=wrap;overflow=hidden;rounded=0;" vertex="1" parent="1">
          <mxGeometry x="30" y="-2320" width="740" height="120" as="geometry" />
        </mxCell>
        <mxCell id="veG0McLc98S-o1ilM4hX-23" value="" style="edgeStyle=orthogonalEdgeStyle;rounded=0;orthogonalLoop=1;jettySize=auto;html=1;strokeWidth=2;" edge="1" parent="1" source="veG0McLc98S-o1ilM4hX-24" target="veG0McLc98S-o1ilM4hX-26">
          <mxGeometry relative="1" as="geometry" />
        </mxCell>
        <mxCell id="veG0McLc98S-o1ilM4hX-24" value="MULAI" style="strokeWidth=2;html=1;shape=mxgraph.flowchart.terminator;whiteSpace=wrap;" vertex="1" parent="1">
          <mxGeometry x="255" y="-2160" width="90" height="40" as="geometry" />
        </mxCell>
        <mxCell id="veG0McLc98S-o1ilM4hX-25" value="" style="edgeStyle=orthogonalEdgeStyle;rounded=0;orthogonalLoop=1;jettySize=auto;html=1;strokeWidth=2;" edge="1" parent="1" source="veG0McLc98S-o1ilM4hX-26" target="veG0McLc98S-o1ilM4hX-28">
          <mxGeometry relative="1" as="geometry" />
        </mxCell>
        <mxCell id="veG0McLc98S-o1ilM4hX-26" value="&lt;span style=&quot;color: rgb(0, 0, 0); font-family: Helvetica; font-style: normal; font-variant-ligatures: normal; font-variant-caps: normal; font-weight: 400; letter-spacing: normal; orphans: 2; text-align: center; text-indent: 0px; text-transform: none; widows: 2; word-spacing: 0px; -webkit-text-stroke-width: 0px; background-color: rgb(251, 251, 251); text-decoration-thickness: initial; text-decoration-style: initial; text-decoration-color: initial; float: none; display: inline !important;&quot;&gt;&lt;font style=&quot;font-size: 14px;&quot;&gt;Permasalahan Aziz dalam mengambil mata kuliah&lt;/font&gt;&lt;/span&gt;" style="whiteSpace=wrap;html=1;strokeWidth=2;" vertex="1" parent="1">
          <mxGeometry x="231.25" y="-2076" width="137.5" height="60" as="geometry" />
        </mxCell>
        <mxCell id="veG0McLc98S-o1ilM4hX-27" value="" style="edgeStyle=orthogonalEdgeStyle;rounded=0;orthogonalLoop=1;jettySize=auto;html=1;strokeWidth=2;" edge="1" parent="1" source="veG0McLc98S-o1ilM4hX-28" target="veG0McLc98S-o1ilM4hX-30">
          <mxGeometry relative="1" as="geometry" />
        </mxCell>
        <mxCell id="veG0McLc98S-o1ilM4hX-28" value="&lt;font style=&quot;font-size: 14px;&quot;&gt;Aziz mempunyai&lt;br style=&quot;border-color: var(--border-color);&quot;&gt;nilai IPK 2.98&lt;/font&gt;" style="shape=parallelogram;perimeter=parallelogramPerimeter;whiteSpace=wrap;html=1;fixedSize=1;strokeWidth=2;" vertex="1" parent="1">
          <mxGeometry x="236.25" y="-1956" width="127.5" height="60" as="geometry" />
        </mxCell>
        <mxCell id="veG0McLc98S-o1ilM4hX-29" value="" style="edgeStyle=orthogonalEdgeStyle;rounded=0;orthogonalLoop=1;jettySize=auto;html=1;strokeWidth=2;" edge="1" parent="1" source="veG0McLc98S-o1ilM4hX-30" target="veG0McLc98S-o1ilM4hX-34">
          <mxGeometry relative="1" as="geometry" />
        </mxCell>
        <mxCell id="veG0McLc98S-o1ilM4hX-30" value="&amp;nbsp;IPK aziz &amp;lt; 3.0" style="rhombus;whiteSpace=wrap;html=1;strokeWidth=2;" vertex="1" parent="1">
          <mxGeometry x="240" y="-1836" width="120" height="100" as="geometry" />
        </mxCell>
        <mxCell id="veG0McLc98S-o1ilM4hX-31" value="&lt;font style=&quot;font-size: 14px;&quot;&gt;MULAI&lt;/font&gt;" style="strokeWidth=2;html=1;shape=mxgraph.flowchart.terminator;whiteSpace=wrap;" vertex="1" parent="1">
          <mxGeometry x="255" y="-2160" width="90" height="40" as="geometry" />
        </mxCell>
        <mxCell id="veG0McLc98S-o1ilM4hX-32" value="END" style="strokeWidth=2;html=1;shape=mxgraph.flowchart.terminator;whiteSpace=wrap;" vertex="1" parent="1">
          <mxGeometry x="255" y="-1440" width="90" height="40" as="geometry" />
        </mxCell>
        <mxCell id="veG0McLc98S-o1ilM4hX-33" style="edgeStyle=orthogonalEdgeStyle;rounded=0;orthogonalLoop=1;jettySize=auto;html=1;entryX=0.5;entryY=0;entryDx=0;entryDy=0;strokeWidth=2;" edge="1" parent="1" source="veG0McLc98S-o1ilM4hX-34" target="veG0McLc98S-o1ilM4hX-36">
          <mxGeometry relative="1" as="geometry" />
        </mxCell>
        <mxCell id="veG0McLc98S-o1ilM4hX-34" value="Dapat Mengambil 20 Sks" style="rounded=0;whiteSpace=wrap;html=1;strokeWidth=2;" vertex="1" parent="1">
          <mxGeometry x="240" y="-1700" width="120" height="60" as="geometry" />
        </mxCell>
        <mxCell id="veG0McLc98S-o1ilM4hX-35" style="edgeStyle=orthogonalEdgeStyle;rounded=0;orthogonalLoop=1;jettySize=auto;html=1;strokeWidth=2;entryX=0.5;entryY=0;entryDx=0;entryDy=0;entryPerimeter=0;" edge="1" parent="1" source="veG0McLc98S-o1ilM4hX-36">
          <mxGeometry relative="1" as="geometry">
            <mxPoint x="300" y="-1440" as="targetPoint" />
          </mxGeometry>
        </mxCell>
        <mxCell id="veG0McLc98S-o1ilM4hX-36" value="Aziz mengambil mata kuliah yg di ulang" style="rounded=0;whiteSpace=wrap;html=1;strokeWidth=2;" vertex="1" parent="1">
          <mxGeometry x="240" y="-1580" width="120" height="60" as="geometry" />
        </mxCell>
        <mxCell id="veG0McLc98S-o1ilM4hX-37" value="Dapat Mengambil Mata Kuliah Wajib" style="rounded=0;whiteSpace=wrap;html=1;strokeWidth=2;" vertex="1" parent="1">
          <mxGeometry x="470" y="-1816" width="120" height="60" as="geometry" />
        </mxCell>
        <mxCell id="veG0McLc98S-o1ilM4hX-38" value="" style="endArrow=classic;html=1;rounded=0;entryX=0;entryY=0.5;entryDx=0;entryDy=0;strokeWidth=2;" edge="1" parent="1" target="veG0McLc98S-o1ilM4hX-37">
          <mxGeometry width="50" height="50" relative="1" as="geometry">
            <mxPoint x="360" y="-1786" as="sourcePoint" />
            <mxPoint x="410" y="-1836" as="targetPoint" />
          </mxGeometry>
        </mxCell>
        <mxCell id="veG0McLc98S-o1ilM4hX-39" value="Yes" style="text;html=1;align=center;verticalAlign=middle;resizable=0;points=[];autosize=1;strokeColor=none;fillColor=none;strokeWidth=2;" vertex="1" parent="1">
          <mxGeometry x="310" y="-1745" width="40" height="30" as="geometry" />
        </mxCell>
        <mxCell id="veG0McLc98S-o1ilM4hX-40" value="No" style="text;html=1;align=center;verticalAlign=middle;resizable=0;points=[];autosize=1;strokeColor=none;fillColor=none;strokeWidth=2;" vertex="1" parent="1">
          <mxGeometry x="350" y="-1812" width="40" height="30" as="geometry" />
        </mxCell>
        <mxCell id="veG0McLc98S-o1ilM4hX-41" value="" style="endArrow=none;html=1;rounded=0;strokeWidth=2;" edge="1" parent="1">
          <mxGeometry width="50" height="50" relative="1" as="geometry">
            <mxPoint x="530" y="-1470" as="sourcePoint" />
            <mxPoint x="530" y="-1755" as="targetPoint" />
          </mxGeometry>
        </mxCell>
        <mxCell id="veG0McLc98S-o1ilM4hX-42" value="" style="endArrow=classic;html=1;rounded=0;strokeWidth=2;" edge="1" parent="1">
          <mxGeometry width="50" height="50" relative="1" as="geometry">
            <mxPoint x="530" y="-1470" as="sourcePoint" />
            <mxPoint x="300" y="-1470" as="targetPoint" />
            <Array as="points">
              <mxPoint x="420" y="-1470" />
            </Array>
          </mxGeometry>
        </mxCell>
        <mxCell id="veG0McLc98S-o1ilM4hX-43" value="&lt;font style=&quot;font-size: 16px;&quot;&gt;Penyeselaian 2&lt;/font&gt;" style="text;html=1;strokeColor=none;fillColor=none;align=center;verticalAlign=middle;whiteSpace=wrap;rounded=0;" vertex="1" parent="1">
          <mxGeometry x="230" y="-2210" width="140" height="30" as="geometry" />
        </mxCell>
      </root>
    </mxGraphModel>
  </diagram>
  <diagram id="NIos0jG5MPiJWTh7f5zf" name="Page-3">
    <mxGraphModel dx="1968" dy="4711" grid="1" gridSize="10" guides="1" tooltips="1" connect="1" arrows="1" fold="1" page="1" pageScale="1" pageWidth="827" pageHeight="1169" math="0" shadow="0">
      <root>
        <mxCell id="0" />
        <mxCell id="1" parent="0" />
        <mxCell id="PAsy6QxwzZSegA05xUpI-1" value="&lt;h1 style=&quot;border-color: var(--border-color); font-size: 17px;&quot;&gt;&lt;font style=&quot;border-color: var(--border-color); font-size: 17px;&quot;&gt;Studi Kasus 2 : Flowchart&amp;nbsp; Permasalahan Penerimaan Mahasiswa Baru&amp;nbsp;&lt;/font&gt;&lt;/h1&gt;&lt;p style=&quot;border-color: var(--border-color); font-size: 17px;&quot;&gt;&lt;br style=&quot;border-color: var(--border-color); color: rgb(0, 0, 0); font-family: Helvetica; font-size: 17px; font-style: normal; font-variant-ligatures: normal; font-variant-caps: normal; font-weight: 400; letter-spacing: normal; orphans: 2; text-align: left; text-indent: 0px; text-transform: none; widows: 2; word-spacing: 0px; -webkit-text-stroke-width: 0px; background-color: rgb(251, 251, 251); text-decoration-thickness: initial; text-decoration-style: initial; text-decoration-color: initial;&quot;&gt;&lt;/p&gt;" style="text;whiteSpace=wrap;html=1;" vertex="1" parent="1">
          <mxGeometry x="30" y="-3490" width="750" height="50" as="geometry" />
        </mxCell>
        <mxCell id="zzic0LdDIxw0ckdaaFWI-14" value="MULAI" style="strokeWidth=2;html=1;shape=mxgraph.flowchart.terminator;whiteSpace=wrap;" vertex="1" parent="1">
          <mxGeometry x="278" y="-3410" width="90" height="40" as="geometry" />
        </mxCell>
        <mxCell id="zzic0LdDIxw0ckdaaFWI-15" value="" style="edgeStyle=orthogonalEdgeStyle;rounded=0;orthogonalLoop=1;jettySize=auto;html=1;" edge="1" parent="1" source="zzic0LdDIxw0ckdaaFWI-16" target="zzic0LdDIxw0ckdaaFWI-18">
          <mxGeometry relative="1" as="geometry" />
        </mxCell>
        <mxCell id="zzic0LdDIxw0ckdaaFWI-16" value="&lt;font style=&quot;font-size: 14px;&quot;&gt;MULAI&lt;/font&gt;" style="strokeWidth=2;html=1;shape=mxgraph.flowchart.terminator;whiteSpace=wrap;" vertex="1" parent="1">
          <mxGeometry x="278" y="-3410" width="90" height="40" as="geometry" />
        </mxCell>
        <mxCell id="zzic0LdDIxw0ckdaaFWI-17" value="" style="edgeStyle=orthogonalEdgeStyle;rounded=0;orthogonalLoop=1;jettySize=auto;html=1;" edge="1" parent="1" source="zzic0LdDIxw0ckdaaFWI-18" target="zzic0LdDIxw0ckdaaFWI-19">
          <mxGeometry relative="1" as="geometry" />
        </mxCell>
        <mxCell id="zzic0LdDIxw0ckdaaFWI-18" value="&lt;font style=&quot;font-size: 14px;&quot;&gt;Calon Mahasiswa&lt;/font&gt;" style="whiteSpace=wrap;html=1;strokeWidth=2;" vertex="1" parent="1">
          <mxGeometry x="253" y="-3320" width="140" height="50" as="geometry" />
        </mxCell>
        <mxCell id="zzic0LdDIxw0ckdaaFWI-21" value="" style="edgeStyle=orthogonalEdgeStyle;rounded=0;orthogonalLoop=1;jettySize=auto;html=1;" edge="1" parent="1" source="zzic0LdDIxw0ckdaaFWI-19" target="zzic0LdDIxw0ckdaaFWI-20">
          <mxGeometry relative="1" as="geometry" />
        </mxCell>
        <mxCell id="zzic0LdDIxw0ckdaaFWI-19" value="&lt;font style=&quot;font-size: 14px;&quot;&gt;Registrasi&lt;/font&gt;" style="whiteSpace=wrap;html=1;strokeWidth=2;" vertex="1" parent="1">
          <mxGeometry x="253" y="-3230" width="140" height="60" as="geometry" />
        </mxCell>
        <mxCell id="zzic0LdDIxw0ckdaaFWI-23" value="" style="edgeStyle=orthogonalEdgeStyle;rounded=0;orthogonalLoop=1;jettySize=auto;html=1;" edge="1" parent="1" source="zzic0LdDIxw0ckdaaFWI-20" target="zzic0LdDIxw0ckdaaFWI-22">
          <mxGeometry relative="1" as="geometry" />
        </mxCell>
        <mxCell id="zzic0LdDIxw0ckdaaFWI-20" value="&lt;font style=&quot;font-size: 14px;&quot;&gt;Mengisi Data Mahasiswa dan Status Mahasiswa (baru/pindahan)&amp;nbsp;&lt;/font&gt;" style="whiteSpace=wrap;html=1;strokeWidth=2;" vertex="1" parent="1">
          <mxGeometry x="213" y="-3100" width="220" height="60" as="geometry" />
        </mxCell>
        <mxCell id="zzic0LdDIxw0ckdaaFWI-25" value="" style="edgeStyle=orthogonalEdgeStyle;rounded=0;orthogonalLoop=1;jettySize=auto;html=1;" edge="1" parent="1" source="zzic0LdDIxw0ckdaaFWI-22" target="zzic0LdDIxw0ckdaaFWI-24">
          <mxGeometry relative="1" as="geometry" />
        </mxCell>
        <mxCell id="zzic0LdDIxw0ckdaaFWI-22" value="&lt;font style=&quot;font-size: 14px;&quot;&gt;No Registrasi dan&lt;br&gt;No Pin Mahasiswa&amp;nbsp;&lt;/font&gt;" style="shape=parallelogram;perimeter=parallelogramPerimeter;whiteSpace=wrap;html=1;fixedSize=1;strokeWidth=2;" vertex="1" parent="1">
          <mxGeometry x="238" y="-2970" width="170" height="60" as="geometry" />
        </mxCell>
        <mxCell id="zzic0LdDIxw0ckdaaFWI-24" value="&lt;font style=&quot;font-size: 14px;&quot;&gt;Bukti Pendaftaran&lt;/font&gt;" style="shape=document;whiteSpace=wrap;html=1;boundedLbl=1;strokeWidth=2;" vertex="1" parent="1">
          <mxGeometry x="263" y="-2840" width="120" height="50" as="geometry" />
        </mxCell>
        <mxCell id="zzic0LdDIxw0ckdaaFWI-26" value="" style="endArrow=none;html=1;rounded=0;" edge="1" parent="1">
          <mxGeometry width="50" height="50" relative="1" as="geometry">
            <mxPoint x="103" y="-2820" as="sourcePoint" />
            <mxPoint x="263" y="-2820" as="targetPoint" />
          </mxGeometry>
        </mxCell>
        <mxCell id="zzic0LdDIxw0ckdaaFWI-27" value="" style="endArrow=none;html=1;rounded=0;" edge="1" parent="1">
          <mxGeometry width="50" height="50" relative="1" as="geometry">
            <mxPoint x="103" y="-2820" as="sourcePoint" />
            <mxPoint x="103" y="-3300" as="targetPoint" />
          </mxGeometry>
        </mxCell>
        <mxCell id="zzic0LdDIxw0ckdaaFWI-29" value="&lt;font style=&quot;font-size: 15px;&quot;&gt;Bukti Pendaftaran&lt;/font&gt;" style="edgeLabel;html=1;align=center;verticalAlign=middle;resizable=0;points=[];" vertex="1" connectable="0" parent="zzic0LdDIxw0ckdaaFWI-27">
          <mxGeometry x="0.1204" y="3" relative="1" as="geometry">
            <mxPoint as="offset" />
          </mxGeometry>
        </mxCell>
        <mxCell id="zzic0LdDIxw0ckdaaFWI-28" value="" style="endArrow=classic;html=1;rounded=0;" edge="1" parent="1">
          <mxGeometry width="50" height="50" relative="1" as="geometry">
            <mxPoint x="103" y="-3300.09" as="sourcePoint" />
            <mxPoint x="253" y="-3300.09" as="targetPoint" />
          </mxGeometry>
        </mxCell>
        <mxCell id="zzic0LdDIxw0ckdaaFWI-30" value="" style="endArrow=classic;html=1;rounded=0;" edge="1" parent="1">
          <mxGeometry width="50" height="50" relative="1" as="geometry">
            <mxPoint x="393" y="-3298" as="sourcePoint" />
            <mxPoint x="493" y="-3298" as="targetPoint" />
          </mxGeometry>
        </mxCell>
        <mxCell id="zzic0LdDIxw0ckdaaFWI-33" value="" style="edgeStyle=orthogonalEdgeStyle;rounded=0;orthogonalLoop=1;jettySize=auto;html=1;" edge="1" parent="1" source="zzic0LdDIxw0ckdaaFWI-31" target="zzic0LdDIxw0ckdaaFWI-32">
          <mxGeometry relative="1" as="geometry" />
        </mxCell>
        <mxCell id="zzic0LdDIxw0ckdaaFWI-31" value="&lt;font style=&quot;font-size: 14px;&quot;&gt;Melengkapi Bukti Pendaftaran dan Berjas Pendaftaran&lt;/font&gt;" style="whiteSpace=wrap;html=1;strokeWidth=2;" vertex="1" parent="1">
          <mxGeometry x="493" y="-3320" width="210" height="60" as="geometry" />
        </mxCell>
        <mxCell id="zzic0LdDIxw0ckdaaFWI-35" value="" style="edgeStyle=orthogonalEdgeStyle;rounded=0;orthogonalLoop=1;jettySize=auto;html=1;" edge="1" parent="1" source="zzic0LdDIxw0ckdaaFWI-32" target="zzic0LdDIxw0ckdaaFWI-34">
          <mxGeometry relative="1" as="geometry" />
        </mxCell>
        <mxCell id="zzic0LdDIxw0ckdaaFWI-32" value="&lt;font style=&quot;font-size: 14px;&quot;&gt;Panitia PMB ITENAS&lt;/font&gt;" style="whiteSpace=wrap;html=1;strokeWidth=2;" vertex="1" parent="1">
          <mxGeometry x="493" y="-3200" width="210" height="60" as="geometry" />
        </mxCell>
        <mxCell id="zzic0LdDIxw0ckdaaFWI-37" value="" style="edgeStyle=orthogonalEdgeStyle;rounded=0;orthogonalLoop=1;jettySize=auto;html=1;" edge="1" parent="1" source="zzic0LdDIxw0ckdaaFWI-34" target="zzic0LdDIxw0ckdaaFWI-36">
          <mxGeometry relative="1" as="geometry" />
        </mxCell>
        <mxCell id="zzic0LdDIxw0ckdaaFWI-34" value="&lt;font style=&quot;font-size: 14px;&quot;&gt;Memenuhi Kelengkapan Berkas ?&lt;/font&gt;" style="rhombus;whiteSpace=wrap;html=1;strokeWidth=2;" vertex="1" parent="1">
          <mxGeometry x="532" y="-3080" width="132" height="100" as="geometry" />
        </mxCell>
        <mxCell id="zzic0LdDIxw0ckdaaFWI-44" value="" style="edgeStyle=orthogonalEdgeStyle;rounded=0;orthogonalLoop=1;jettySize=auto;html=1;" edge="1" parent="1" source="zzic0LdDIxw0ckdaaFWI-36" target="zzic0LdDIxw0ckdaaFWI-43">
          <mxGeometry relative="1" as="geometry" />
        </mxCell>
        <mxCell id="zzic0LdDIxw0ckdaaFWI-36" value="&lt;font style=&quot;font-size: 14px;&quot;&gt;Membayar Biaya Registrasi&lt;/font&gt;" style="whiteSpace=wrap;html=1;strokeWidth=2;" vertex="1" parent="1">
          <mxGeometry x="537.9999999999999" y="-2930" width="120" height="60" as="geometry" />
        </mxCell>
        <mxCell id="zzic0LdDIxw0ckdaaFWI-38" value="&lt;font style=&quot;font-size: 16px;&quot;&gt;Yes&lt;/font&gt;" style="text;html=1;align=center;verticalAlign=middle;resizable=0;points=[];autosize=1;strokeColor=none;fillColor=none;" vertex="1" parent="1">
          <mxGeometry x="600" y="-2980" width="50" height="30" as="geometry" />
        </mxCell>
        <mxCell id="zzic0LdDIxw0ckdaaFWI-39" value="" style="endArrow=none;html=1;rounded=0;" edge="1" parent="1">
          <mxGeometry width="50" height="50" relative="1" as="geometry">
            <mxPoint x="664" y="-3030" as="sourcePoint" />
            <mxPoint x="740" y="-3030.31" as="targetPoint" />
          </mxGeometry>
        </mxCell>
        <mxCell id="zzic0LdDIxw0ckdaaFWI-40" value="" style="endArrow=none;html=1;rounded=0;" edge="1" parent="1">
          <mxGeometry width="50" height="50" relative="1" as="geometry">
            <mxPoint x="740" y="-3030" as="sourcePoint" />
            <mxPoint x="740" y="-3300" as="targetPoint" />
          </mxGeometry>
        </mxCell>
        <mxCell id="zzic0LdDIxw0ckdaaFWI-41" value="" style="endArrow=classic;html=1;rounded=0;entryX=1;entryY=0.5;entryDx=0;entryDy=0;" edge="1" parent="1">
          <mxGeometry width="50" height="50" relative="1" as="geometry">
            <mxPoint x="740" y="-3300" as="sourcePoint" />
            <mxPoint x="703" y="-3300" as="targetPoint" />
          </mxGeometry>
        </mxCell>
        <mxCell id="zzic0LdDIxw0ckdaaFWI-42" value="&lt;font style=&quot;font-size: 16px;&quot;&gt;No&lt;/font&gt;" style="text;html=1;align=center;verticalAlign=middle;resizable=0;points=[];autosize=1;strokeColor=none;fillColor=none;" vertex="1" parent="1">
          <mxGeometry x="664" y="-3060" width="40" height="30" as="geometry" />
        </mxCell>
        <mxCell id="zzic0LdDIxw0ckdaaFWI-46" value="" style="edgeStyle=orthogonalEdgeStyle;rounded=0;orthogonalLoop=1;jettySize=auto;html=1;" edge="1" parent="1" source="zzic0LdDIxw0ckdaaFWI-43" target="zzic0LdDIxw0ckdaaFWI-45">
          <mxGeometry relative="1" as="geometry" />
        </mxCell>
        <mxCell id="zzic0LdDIxw0ckdaaFWI-43" value="&lt;font style=&quot;font-size: 14px;&quot;&gt;Keuangan&lt;/font&gt;" style="whiteSpace=wrap;html=1;strokeWidth=2;" vertex="1" parent="1">
          <mxGeometry x="537.9999999999999" y="-2790" width="120" height="60" as="geometry" />
        </mxCell>
        <mxCell id="zzic0LdDIxw0ckdaaFWI-45" value="&lt;font style=&quot;font-size: 14px;&quot;&gt;Bukti Pembayaran&lt;/font&gt;" style="shape=document;whiteSpace=wrap;html=1;boundedLbl=1;strokeWidth=2;" vertex="1" parent="1">
          <mxGeometry x="537.9999999999999" y="-2660" width="120" height="40" as="geometry" />
        </mxCell>
        <mxCell id="ZaemdPLl91VFV3RyhatD-1" value="" style="endArrow=classic;html=1;rounded=0;" edge="1" parent="1">
          <mxGeometry width="50" height="50" relative="1" as="geometry">
            <mxPoint x="537.9999999999999" y="-2640" as="sourcePoint" />
            <mxPoint x="440" y="-2640" as="targetPoint" />
          </mxGeometry>
        </mxCell>
        <mxCell id="ZaemdPLl91VFV3RyhatD-4" value="" style="edgeStyle=orthogonalEdgeStyle;rounded=0;orthogonalLoop=1;jettySize=auto;html=1;" edge="1" parent="1" source="ZaemdPLl91VFV3RyhatD-2">
          <mxGeometry relative="1" as="geometry">
            <mxPoint x="380" y="-2530" as="targetPoint" />
          </mxGeometry>
        </mxCell>
        <mxCell id="ZaemdPLl91VFV3RyhatD-2" value="&lt;span style=&quot;font-size: 14px;&quot;&gt;Verifikasi Pembayaran oleh Pihak ITENAS&lt;/span&gt;" style="whiteSpace=wrap;html=1;strokeWidth=2;" vertex="1" parent="1">
          <mxGeometry x="320" y="-2670" width="120" height="60" as="geometry" />
        </mxCell>
        <mxCell id="ZaemdPLl91VFV3RyhatD-6" value="" style="edgeStyle=orthogonalEdgeStyle;rounded=0;orthogonalLoop=1;jettySize=auto;html=1;" edge="1" parent="1" source="ZaemdPLl91VFV3RyhatD-3" target="ZaemdPLl91VFV3RyhatD-5">
          <mxGeometry relative="1" as="geometry" />
        </mxCell>
        <mxCell id="ZaemdPLl91VFV3RyhatD-3" value="&lt;span style=&quot;font-size: 14px;&quot;&gt;Mengikuti Ujian Masuk PMB&lt;/span&gt;" style="whiteSpace=wrap;html=1;strokeWidth=2;" vertex="1" parent="1">
          <mxGeometry x="325.43" y="-2530" width="120" height="60" as="geometry" />
        </mxCell>
        <mxCell id="ZaemdPLl91VFV3RyhatD-8" value="" style="edgeStyle=orthogonalEdgeStyle;rounded=0;orthogonalLoop=1;jettySize=auto;html=1;" edge="1" parent="1" source="ZaemdPLl91VFV3RyhatD-5" target="ZaemdPLl91VFV3RyhatD-7">
          <mxGeometry relative="1" as="geometry" />
        </mxCell>
        <mxCell id="ZaemdPLl91VFV3RyhatD-5" value="&lt;font style=&quot;font-size: 14px;&quot;&gt;Ujian Lulus&amp;nbsp;&lt;/font&gt;" style="rhombus;whiteSpace=wrap;html=1;strokeWidth=2;" vertex="1" parent="1">
          <mxGeometry x="335.43" y="-2400" width="100" height="80" as="geometry" />
        </mxCell>
        <mxCell id="ZaemdPLl91VFV3RyhatD-10" value="" style="edgeStyle=orthogonalEdgeStyle;rounded=0;orthogonalLoop=1;jettySize=auto;html=1;" edge="1" parent="1" source="ZaemdPLl91VFV3RyhatD-7" target="ZaemdPLl91VFV3RyhatD-9">
          <mxGeometry relative="1" as="geometry" />
        </mxCell>
        <mxCell id="ZaemdPLl91VFV3RyhatD-7" value="&lt;font style=&quot;font-size: 14px;&quot;&gt;Membayar Registrasi Perkuliahan&lt;/font&gt;" style="whiteSpace=wrap;html=1;strokeWidth=2;" vertex="1" parent="1">
          <mxGeometry x="295.43" y="-2260" width="180" height="60" as="geometry" />
        </mxCell>
        <mxCell id="ZaemdPLl91VFV3RyhatD-13" value="" style="edgeStyle=orthogonalEdgeStyle;rounded=0;orthogonalLoop=1;jettySize=auto;html=1;" edge="1" parent="1" source="ZaemdPLl91VFV3RyhatD-9" target="ZaemdPLl91VFV3RyhatD-12">
          <mxGeometry relative="1" as="geometry" />
        </mxCell>
        <mxCell id="ZaemdPLl91VFV3RyhatD-9" value="&lt;span style=&quot;font-size: 14px;&quot;&gt;Mengisi KRS&lt;/span&gt;" style="whiteSpace=wrap;html=1;strokeWidth=2;" vertex="1" parent="1">
          <mxGeometry x="295.43" y="-2120" width="180" height="60" as="geometry" />
        </mxCell>
        <mxCell id="ZaemdPLl91VFV3RyhatD-12" value="&lt;span style=&quot;font-size: 14px;&quot;&gt;Selesai&lt;/span&gt;" style="strokeWidth=2;html=1;shape=mxgraph.flowchart.terminator;whiteSpace=wrap;" vertex="1" parent="1">
          <mxGeometry x="340.43" y="-1990" width="90" height="40" as="geometry" />
        </mxCell>
        <mxCell id="ZaemdPLl91VFV3RyhatD-14" value="&lt;font style=&quot;font-size: 14px;&quot;&gt;Yes&lt;/font&gt;" style="text;html=1;align=center;verticalAlign=middle;resizable=0;points=[];autosize=1;strokeColor=none;fillColor=none;" vertex="1" parent="1">
          <mxGeometry x="385.43" y="-2320" width="50" height="30" as="geometry" />
        </mxCell>
        <mxCell id="ZaemdPLl91VFV3RyhatD-15" value="" style="endArrow=none;html=1;rounded=0;" edge="1" parent="1">
          <mxGeometry width="50" height="50" relative="1" as="geometry">
            <mxPoint x="435.43" y="-2360" as="sourcePoint" />
            <mxPoint x="595.43" y="-2360" as="targetPoint" />
          </mxGeometry>
        </mxCell>
        <mxCell id="ZaemdPLl91VFV3RyhatD-16" value="" style="endArrow=none;html=1;rounded=0;" edge="1" parent="1">
          <mxGeometry width="50" height="50" relative="1" as="geometry">
            <mxPoint x="595.43" y="-2010" as="sourcePoint" />
            <mxPoint x="595.43" y="-2360" as="targetPoint" />
          </mxGeometry>
        </mxCell>
        <mxCell id="ZaemdPLl91VFV3RyhatD-17" value="" style="endArrow=classic;html=1;rounded=0;" edge="1" parent="1">
          <mxGeometry width="50" height="50" relative="1" as="geometry">
            <mxPoint x="595.43" y="-2010" as="sourcePoint" />
            <mxPoint x="385.43" y="-2010" as="targetPoint" />
          </mxGeometry>
        </mxCell>
        <mxCell id="ZaemdPLl91VFV3RyhatD-18" value="&lt;font style=&quot;font-size: 14px;&quot;&gt;No&lt;/font&gt;" style="text;html=1;align=center;verticalAlign=middle;resizable=0;points=[];autosize=1;strokeColor=none;fillColor=none;" vertex="1" parent="1">
          <mxGeometry x="425.43" y="-2392" width="40" height="30" as="geometry" />
        </mxCell>
      </root>
    </mxGraphModel>
  </diagram>
</mxfile>
